<svg width="800" height="400" viewBox="0 0 800 400" xmlns="http://www.w3.org/2000/svg">
  <defs>
    <!-- Cloud shape -->
    <path id="cloud" d="M25,60 
      a20,20 0 0,1 0,-40 
      h50 
      a20,20 0 0,1 0,-40 
      h100 
      a30,30 0 0,1 0,60 
      h-20
      a20,20 0 0,1 0,40 
      h-130 
      a25,25 0 0,1 0,-20" 
      fill="white" />
  </defs>
  
  <!-- Large cloud 1 -->
  <use href="#cloud" transform="translate(100, 80) scale(1.5)" opacity="0.9" />
  
  <!-- Large cloud 2 -->
  <use href="#cloud" transform="translate(500, 150) scale(1.2) scaleX(-1)" opacity="0.8" />
  
  <!-- Small cloud 1 -->
  <use href="#cloud" transform="translate(300, 50) scale(0.7)" opacity="0.7" />
  
  <!-- Small cloud 2 -->
  <use href="#cloud" transform="translate(650, 70) scale(0.5)" opacity="0.6" />
  
  <!-- Small cloud 3 -->
  <use href="#cloud" transform="translate(200, 200) scale(0.6) scaleX(-1)" opacity="0.5" />
  
  <!-- Small cloud 4 -->
  <use href="#cloud" transform="translate(400, 250) scale(0.5)" opacity="0.4" />
</svg> 